# xmcd
#
# Track frame offsets:
#	150
#	13766
#	28713
#	46669
#	63036
#	81889
#	100064
#	114644
#	129364
#	143920
#	174459
#	197174
#	209108
#	221418
#	234663
#
# Disc length: 3357 seconds
#
# Revision: 0
# Processed by: cddbd v1.5.1PL0 Copyright (c) Steve Scherf et al.
# Submitted via: EasyCDDAExtractor 8.2.1.1
#
DISCID=d00d1b0f
DTITLE=Hardbradler - Bradlfett
DYEAR=1997
DGENRE=Country
TTITLE0=Waldhansl
TTITLE1=Tanzen Tat I Gern
TTITLE2=Steirischer Brauch
TTITLE3=Mei Vader War A Wildera
TTITLE4=Lederhosen, Stramme Wadln
TTITLE5=Bleib Bei Mir
TTITLE6=Kalwang
TTITLE7=Und A Waldbua Bin I
TTITLE8=Schatz
TTITLE9=Landlerblues
TTITLE10=Krampeltag
TTITLE11=Schau, Schau
TTITLE12=Mei Feind Des Is A Luada
TTITLE13=Roithner Jodler
TTITLE14=Roots
EXTD=
EXTT0=
EXTT1=
EXTT2=
EXTT3=
EXTT4=
EXTT5=
EXTT6=
EXTT7=
EXTT8=
EXTT9=
EXTT10=
EXTT11=
EXTT12=
EXTT13=
EXTT14=
PLAYORDER=
